<svg width="284" height="54" viewBox="0 0 284 54" fill="none" xmlns="http://www.w3.org/2000/svg">
<path d="M10.6645 18H0.214453V0.274999H10.6645V1.725H1.81445V8.4H9.88945V9.85H1.81445V16.55H10.6645V18ZM15.3984 10.875V18H13.8984V6.075H15.3484V7.975C15.9984 6.7 17.3984 5.775 19.2234 5.775C22.0234 5.775 23.4484 7.775 23.4484 10.225V18H21.9484V10.475C21.9484 8.6 21.0234 7.125 18.7234 7.125C16.6734 7.125 15.3984 8.85 15.3984 10.875ZM29.6291 2.3V6.075H32.7291V7.425H29.6291V14.625C29.6291 16.075 30.3041 16.775 31.6541 16.775C32.0791 16.775 32.5041 16.675 32.7291 16.575V17.9C32.5291 18 31.9791 18.125 31.2541 18.125C29.3291 18.125 28.1291 16.95 28.1291 14.775V7.425H25.6041V6.075H26.5041C27.6791 6.075 28.1791 5.55 28.1791 4.325V2.3H29.6291ZM36.1572 11.075H44.1072C44.0572 8.85 42.6322 7.1 40.1322 7.1C37.9072 7.1 36.3072 8.875 36.1572 11.075ZM44.2822 14.15L45.6072 14.625C44.9322 16.65 43.1322 18.325 40.3822 18.325C37.2322 18.325 34.5822 16 34.5822 12C34.5822 8.25 37.1322 5.75 40.1072 5.75C43.6322 5.75 45.6572 8.25 45.6822 11.775C45.6822 11.975 45.6822 12.125 45.6572 12.325H36.1072V12.425C36.1322 15.175 38.0322 16.975 40.3822 16.975C42.5322 16.975 43.7822 15.725 44.2822 14.15ZM54.8611 6.05V7.625C54.5861 7.55 54.2111 7.5 53.8111 7.5C51.7861 7.5 50.2861 8.8 50.2861 11.525V18H48.7861V6.075H50.2611V8.3C50.9861 6.65 52.3611 5.925 53.9361 5.925C54.3361 5.925 54.6611 5.975 54.8611 6.05ZM64.7592 22.75H63.1342L66.1092 16.45L61.0342 6.075H62.7092L66.8842 14.875L70.8342 6.075H72.4842L64.7592 22.75ZM79.6674 18.325C76.3424 18.325 73.7424 15.775 73.7424 12.05C73.7424 8.3 76.3174 5.775 79.6674 5.775C82.9924 5.775 85.5924 8.3 85.5924 12.05C85.5924 15.775 82.9924 18.325 79.6674 18.325ZM75.2674 12.05C75.2674 15.15 77.3174 16.975 79.6674 16.975C82.0174 16.975 84.0674 15.15 84.0674 12.05C84.0674 8.925 82.0174 7.125 79.6674 7.125C77.3174 7.125 75.2674 8.925 75.2674 12.05ZM96.8264 16.15C96.2764 17.3 94.9514 18.325 93.0764 18.325C90.0514 18.325 88.6264 16.075 88.6264 13.575V6.075H90.1264V13.325C90.1264 15.225 91.0014 16.975 93.3514 16.975C95.4764 16.975 96.7264 15.35 96.7264 13.35V6.075H98.2264V15.725C98.2264 16.625 98.3014 17.475 98.3764 18H96.9514C96.9014 17.75 96.8264 17.075 96.8264 16.325V16.15ZM108.328 6.05V7.625C108.053 7.55 107.678 7.5 107.278 7.5C105.253 7.5 103.753 8.8 103.753 11.525V18H102.253V6.075H103.728V8.3C104.453 6.65 105.828 5.925 107.403 5.925C107.803 5.925 108.128 5.975 108.328 6.05ZM118.423 2.3V6.075H121.523V7.425H118.423V14.625C118.423 16.075 119.098 16.775 120.448 16.775C120.873 16.775 121.298 16.675 121.523 16.575V17.9C121.323 18 120.773 18.125 120.048 18.125C118.123 18.125 116.923 16.95 116.923 14.775V7.425H114.398V6.075H115.298C116.473 6.075 116.973 5.55 116.973 4.325V2.3H118.423ZM124.951 11.075H132.901C132.851 8.85 131.426 7.1 128.926 7.1C126.701 7.1 125.101 8.875 124.951 11.075ZM133.076 14.15L134.401 14.625C133.726 16.65 131.926 18.325 129.176 18.325C126.026 18.325 123.376 16 123.376 12C123.376 8.25 125.926 5.75 128.901 5.75C132.426 5.75 134.451 8.25 134.476 11.775C134.476 11.975 134.476 12.125 134.451 12.325H124.901V12.425C124.926 15.175 126.826 16.975 129.176 16.975C131.326 16.975 132.576 15.725 133.076 14.15ZM140.605 18.3C138.105 18.3 136.705 16.65 136.705 14.925C136.705 12.9 138.105 11.725 140.28 11.4L143.455 10.925C144.48 10.775 144.705 10.325 144.705 9.775C144.705 8.2 143.655 7.075 141.705 7.075C139.805 7.075 138.555 8.125 138.355 9.85L136.955 9.55C137.23 7.275 139.13 5.775 141.68 5.775C144.78 5.775 146.205 7.65 146.205 9.925V15.95C146.205 16.9 146.28 17.5 146.38 18H144.905C144.855 17.725 144.755 16.925 144.755 15.95C144.205 17.075 142.78 18.3 140.605 18.3ZM140.78 17.025C143.055 17.025 144.705 15.525 144.705 13.125V11.775C144.63 11.85 144.305 12 143.83 12.075L140.505 12.575C139.105 12.775 138.23 13.55 138.23 14.85C138.23 15.95 139.13 17.025 140.78 17.025ZM151.58 18H150.08V6.075H151.555V8.05C152.08 6.8 153.505 5.75 155.355 5.75C157.205 5.75 158.63 6.775 159.105 8.45C159.83 6.725 161.305 5.75 163.205 5.75C165.53 5.75 167.33 7.35 167.33 10.1V18H165.83V10.275C165.83 8.475 164.78 7.075 162.78 7.075C160.805 7.075 159.455 8.725 159.455 10.675V18H157.955V10.275C157.955 8.475 156.93 7.075 154.905 7.075C152.93 7.075 151.58 8.7 151.58 10.675V18ZM169.897 1.275C169.897 0.65 170.422 0.0999995 171.147 0.0999995C171.872 0.0999995 172.547 0.675 172.547 1.775C172.547 4.125 171.122 5.55 169.722 5.875V4.975C170.797 4.675 171.472 3.475 171.497 2.375C171.422 2.45 171.272 2.5 171.047 2.5C170.397 2.5 169.897 2 169.897 1.275ZM173.128 14.875L174.503 14.4C174.728 15.85 175.828 17.025 177.778 17.025C179.253 17.025 180.428 16.15 180.428 14.9C180.428 13.8 179.678 13.2 178.403 12.9L176.478 12.45C174.728 12.05 173.553 11 173.553 9.275C173.553 7.35 175.403 5.775 177.578 5.775C180.353 5.775 181.528 7.425 181.853 8.85L180.528 9.35C180.303 8.2 179.478 7.075 177.578 7.075C176.228 7.075 175.028 7.925 175.028 9.175C175.028 10.2 175.678 10.8 176.903 11.075L178.803 11.5C180.778 11.95 181.903 13.075 181.903 14.8C181.903 16.575 180.403 18.325 177.753 18.325C174.828 18.325 173.353 16.45 173.128 14.875ZM194.609 18.3C192.109 18.3 190.709 16.65 190.709 14.925C190.709 12.9 192.109 11.725 194.284 11.4L197.459 10.925C198.484 10.775 198.709 10.325 198.709 9.775C198.709 8.2 197.659 7.075 195.709 7.075C193.809 7.075 192.559 8.125 192.359 9.85L190.959 9.55C191.234 7.275 193.134 5.775 195.684 5.775C198.784 5.775 200.209 7.65 200.209 9.925V15.95C200.209 16.9 200.284 17.5 200.384 18H198.909C198.859 17.725 198.759 16.925 198.759 15.95C198.209 17.075 196.784 18.3 194.609 18.3ZM194.784 17.025C197.059 17.025 198.709 15.525 198.709 13.125V11.775C198.634 11.85 198.309 12 197.834 12.075L194.509 12.575C193.109 12.775 192.234 13.55 192.234 14.85C192.234 15.95 193.134 17.025 194.784 17.025ZM209.109 7.1C206.734 7.1 204.759 8.975 204.759 12.05C204.759 15.075 206.709 16.975 209.109 16.975C211.409 16.975 212.584 15.375 212.984 14.05L214.309 14.6C213.734 16.45 211.984 18.325 209.109 18.325C205.734 18.325 203.259 15.7 203.259 12.05C203.259 8.375 205.759 5.75 209.109 5.75C211.959 5.75 213.659 7.5 214.209 9.5L212.884 10.05C212.484 8.65 211.409 7.1 209.109 7.1ZM222.341 7.1C219.966 7.1 217.991 8.975 217.991 12.05C217.991 15.075 219.941 16.975 222.341 16.975C224.641 16.975 225.816 15.375 226.216 14.05L227.541 14.6C226.966 16.45 225.216 18.325 222.341 18.325C218.966 18.325 216.491 15.7 216.491 12.05C216.491 8.375 218.991 5.75 222.341 5.75C225.191 5.75 226.891 7.5 227.441 9.5L226.116 10.05C225.716 8.65 224.641 7.1 222.341 7.1ZM238.599 16.15C238.049 17.3 236.724 18.325 234.849 18.325C231.824 18.325 230.399 16.075 230.399 13.575V6.075H231.899V13.325C231.899 15.225 232.774 16.975 235.124 16.975C237.249 16.975 238.499 15.35 238.499 13.35V6.075H239.999V15.725C239.999 16.625 240.074 17.475 240.149 18H238.724C238.674 17.75 238.599 17.075 238.599 16.325V16.15ZM250.1 6.05V7.625C249.825 7.55 249.45 7.5 249.05 7.5C247.025 7.5 245.525 8.8 245.525 11.525V18H244.025V6.075H245.5V8.3C246.225 6.65 247.6 5.925 249.175 5.925C249.575 5.925 249.9 5.975 250.1 6.05ZM255.376 18.3C252.876 18.3 251.476 16.65 251.476 14.925C251.476 12.9 252.876 11.725 255.051 11.4L258.226 10.925C259.251 10.775 259.476 10.325 259.476 9.775C259.476 8.2 258.426 7.075 256.476 7.075C254.576 7.075 253.326 8.125 253.126 9.85L251.726 9.55C252.001 7.275 253.901 5.775 256.451 5.775C259.551 5.775 260.976 7.65 260.976 9.925V15.95C260.976 16.9 261.051 17.5 261.151 18H259.676C259.626 17.725 259.526 16.925 259.526 15.95C258.976 17.075 257.551 18.3 255.376 18.3ZM255.551 17.025C257.826 17.025 259.476 15.525 259.476 13.125V11.775C259.401 11.85 259.076 12 258.601 12.075L255.276 12.575C253.876 12.775 253.001 13.55 253.001 14.85C253.001 15.95 253.901 17.025 255.551 17.025ZM267.154 2.3V6.075H270.254V7.425H267.154V14.625C267.154 16.075 267.829 16.775 269.179 16.775C269.604 16.775 270.029 16.675 270.254 16.575V17.9C270.054 18 269.504 18.125 268.779 18.125C266.854 18.125 265.654 16.95 265.654 14.775V7.425H263.129V6.075H264.029C265.204 6.075 265.704 5.55 265.704 4.325V2.3H267.154ZM273.682 11.075H281.632C281.582 8.85 280.157 7.1 277.657 7.1C275.432 7.1 273.832 8.875 273.682 11.075ZM281.807 14.15L283.132 14.625C282.457 16.65 280.657 18.325 277.907 18.325C274.757 18.325 272.107 16 272.107 12C272.107 8.25 274.657 5.75 277.632 5.75C281.157 5.75 283.182 8.25 283.207 11.775C283.207 11.975 283.207 12.125 283.182 12.325H273.632V12.425C273.657 15.175 275.557 16.975 277.907 16.975C280.057 16.975 281.307 15.725 281.807 14.15ZM52.2393 53H50.7393V41.075H52.2393V53ZM50.2393 36.125C50.2393 35.4 50.7893 34.875 51.4893 34.875C52.1893 34.875 52.7393 35.4 52.7393 36.125C52.7393 36.85 52.1893 37.375 51.4893 37.375C50.7893 37.375 50.2393 36.85 50.2393 36.125ZM57.7324 45.875V53H56.2324V41.075H57.6824V42.975C58.3324 41.7 59.7324 40.775 61.5574 40.775C64.3574 40.775 65.7824 42.775 65.7824 45.225V53H64.2824V45.475C64.2824 43.6 63.3574 42.125 61.0574 42.125C59.0074 42.125 57.7324 43.85 57.7324 45.875ZM75.2625 42.425H71.9375V53H70.4375V42.425H67.9875V41.075H70.4375V38.6C70.4375 36.075 71.9875 34.75 73.9875 34.75C74.6125 34.75 75.0625 34.875 75.3375 35V36.35C75.1125 36.25 74.7375 36.15 74.2125 36.15C73.0125 36.15 71.9375 36.775 71.9375 38.675V41.075H75.2625V42.425ZM82.4262 53.325C79.1012 53.325 76.5012 50.775 76.5012 47.05C76.5012 43.3 79.0762 40.775 82.4262 40.775C85.7512 40.775 88.3512 43.3 88.3512 47.05C88.3512 50.775 85.7512 53.325 82.4262 53.325ZM78.0262 47.05C78.0262 50.15 80.0762 51.975 82.4262 51.975C84.7762 51.975 86.8262 50.15 86.8262 47.05C86.8262 43.925 84.7762 42.125 82.4262 42.125C80.0762 42.125 78.0262 43.925 78.0262 47.05ZM97.6102 41.05V42.625C97.3352 42.55 96.9602 42.5 96.5602 42.5C94.5352 42.5 93.0352 43.8 93.0352 46.525V53H91.5352V41.075H93.0102V43.3C93.7352 41.65 95.1102 40.925 96.6852 40.925C97.0852 40.925 97.4102 40.975 97.6102 41.05ZM101.458 53H99.958V41.075H101.433V43.05C101.958 41.8 103.383 40.75 105.233 40.75C107.083 40.75 108.508 41.775 108.983 43.45C109.708 41.725 111.183 40.75 113.083 40.75C115.408 40.75 117.208 42.35 117.208 45.1V53H115.708V45.275C115.708 43.475 114.658 42.075 112.658 42.075C110.683 42.075 109.333 43.725 109.333 45.675V53H107.833V45.275C107.833 43.475 106.808 42.075 104.783 42.075C102.808 42.075 101.458 43.7 101.458 45.675V53ZM124.101 53.3C121.601 53.3 120.201 51.65 120.201 49.925C120.201 47.9 121.601 46.725 123.776 46.4L126.951 45.925C127.976 45.775 128.201 45.325 128.201 44.775C128.201 43.2 127.151 42.075 125.201 42.075C123.301 42.075 122.051 43.125 121.851 44.85L120.451 44.55C120.726 42.275 122.626 40.775 125.176 40.775C128.276 40.775 129.701 42.65 129.701 44.925V50.95C129.701 51.9 129.776 52.5 129.876 53H128.401C128.351 52.725 128.251 51.925 128.251 50.95C127.701 52.075 126.276 53.3 124.101 53.3ZM124.276 52.025C126.551 52.025 128.201 50.525 128.201 48.125V46.775C128.126 46.85 127.801 47 127.326 47.075L124.001 47.575C122.601 47.775 121.726 48.55 121.726 49.85C121.726 50.95 122.626 52.025 124.276 52.025ZM135.879 37.3V41.075H138.979V42.425H135.879V49.625C135.879 51.075 136.554 51.775 137.904 51.775C138.329 51.775 138.754 51.675 138.979 51.575V52.9C138.779 53 138.229 53.125 137.504 53.125C135.579 53.125 134.379 51.95 134.379 49.775V42.425H131.854V41.075H132.754C133.929 41.075 134.429 40.55 134.429 39.325V37.3H135.879ZM143.157 53H141.657V41.075H143.157V53ZM141.157 36.125C141.157 35.4 141.707 34.875 142.407 34.875C143.107 34.875 143.657 35.4 143.657 36.125C143.657 36.85 143.107 37.375 142.407 37.375C141.707 37.375 141.157 36.85 141.157 36.125ZM152.25 53.325C148.925 53.325 146.325 50.775 146.325 47.05C146.325 43.3 148.9 40.775 152.25 40.775C155.575 40.775 158.175 43.3 158.175 47.05C158.175 50.775 155.575 53.325 152.25 53.325ZM147.85 47.05C147.85 50.15 149.9 51.975 152.25 51.975C154.6 51.975 156.65 50.15 156.65 47.05C156.65 43.925 154.6 42.125 152.25 42.125C149.9 42.125 147.85 43.925 147.85 47.05ZM162.859 45.875V53H161.359V41.075H162.809V42.975C163.459 41.7 164.859 40.775 166.684 40.775C169.484 40.775 170.909 42.775 170.909 45.225V53H169.409V45.475C169.409 43.6 168.484 42.125 166.184 42.125C164.134 42.125 162.859 43.85 162.859 45.875ZM182.757 45.825V53H181.257V34.95H182.757V42.95C183.382 41.75 184.732 40.75 186.582 40.75C189.407 40.75 190.807 42.75 190.807 45.2V53H189.307V45.45C189.307 43.575 188.332 42.1 186.082 42.1C184.057 42.1 182.757 43.875 182.757 45.825ZM195.435 46.075H203.385C203.335 43.85 201.91 42.1 199.41 42.1C197.185 42.1 195.585 43.875 195.435 46.075ZM203.56 49.15L204.885 49.625C204.21 51.65 202.41 53.325 199.66 53.325C196.51 53.325 193.86 51 193.86 47C193.86 43.25 196.41 40.75 199.385 40.75C202.91 40.75 204.935 43.25 204.96 46.775C204.96 46.975 204.96 47.125 204.935 47.325H195.385V47.425C195.41 50.175 197.31 51.975 199.66 51.975C201.81 51.975 203.06 50.725 203.56 49.15ZM214.138 41.05V42.625C213.863 42.55 213.488 42.5 213.088 42.5C211.063 42.5 209.563 43.8 209.563 46.525V53H208.063V41.075H209.538V43.3C210.263 41.65 211.638 40.925 213.213 40.925C213.613 40.925 213.938 40.975 214.138 41.05ZM216.919 46.075H224.869C224.819 43.85 223.394 42.1 220.894 42.1C218.669 42.1 217.069 43.875 216.919 46.075ZM225.044 49.15L226.369 49.625C225.694 51.65 223.894 53.325 221.144 53.325C217.994 53.325 215.344 51 215.344 47C215.344 43.25 217.894 40.75 220.869 40.75C224.394 40.75 226.419 43.25 226.444 46.775C226.444 46.975 226.444 47.125 226.419 47.325H216.869V47.425C216.894 50.175 218.794 51.975 221.144 51.975C223.294 51.975 224.544 50.725 225.044 49.15ZM229.098 51.8C229.098 51.075 229.673 50.475 230.398 50.475C231.148 50.475 231.723 51.075 231.723 51.8C231.723 52.525 231.148 53.1 230.398 53.1C229.673 53.1 229.098 52.525 229.098 51.8Z" fill="black"/>
</svg>
