<svg width="1737" height="1047" viewBox="0 0 1737 1047" fill="none" xmlns="http://www.w3.org/2000/svg">
<path d="M242.664 276H232.214V258.275H242.664V259.725H233.814V266.4H241.889V267.85H233.814V274.55H242.664V276ZM247.398 268.875V276H245.898V264.075H247.348V265.975C247.998 264.7 249.398 263.775 251.223 263.775C254.023 263.775 255.448 265.775 255.448 268.225V276H253.948V268.475C253.948 266.6 253.023 265.125 250.723 265.125C248.673 265.125 247.398 266.85 247.398 268.875ZM261.629 260.3V264.075H264.729V265.425H261.629V272.625C261.629 274.075 262.304 274.775 263.654 274.775C264.079 274.775 264.504 274.675 264.729 274.575V275.9C264.529 276 263.979 276.125 263.254 276.125C261.329 276.125 260.129 274.95 260.129 272.775V265.425H257.604V264.075H258.504C259.679 264.075 260.179 263.55 260.179 262.325V260.3H261.629ZM268.157 269.075H276.107C276.057 266.85 274.632 265.1 272.132 265.1C269.907 265.1 268.307 266.875 268.157 269.075ZM276.282 272.15L277.607 272.625C276.932 274.65 275.132 276.325 272.382 276.325C269.232 276.325 266.582 274 266.582 270C266.582 266.25 269.132 263.75 272.107 263.75C275.632 263.75 277.657 266.25 277.682 269.775C277.682 269.975 277.682 270.125 277.657 270.325H268.107V270.425C268.132 273.175 270.032 274.975 272.382 274.975C274.532 274.975 275.782 273.725 276.282 272.15ZM286.861 264.05V265.625C286.586 265.55 286.211 265.5 285.811 265.5C283.786 265.5 282.286 266.8 282.286 269.525V276H280.786V264.075H282.261V266.3C282.986 264.65 284.361 263.925 285.936 263.925C286.336 263.925 286.661 263.975 286.861 264.05ZM296.759 280.75H295.134L298.109 274.45L293.034 264.075H294.709L298.884 272.875L302.834 264.075H304.484L296.759 280.75ZM311.667 276.325C308.342 276.325 305.742 273.775 305.742 270.05C305.742 266.3 308.317 263.775 311.667 263.775C314.992 263.775 317.592 266.3 317.592 270.05C317.592 273.775 314.992 276.325 311.667 276.325ZM307.267 270.05C307.267 273.15 309.317 274.975 311.667 274.975C314.017 274.975 316.067 273.15 316.067 270.05C316.067 266.925 314.017 265.125 311.667 265.125C309.317 265.125 307.267 266.925 307.267 270.05ZM328.826 274.15C328.276 275.3 326.951 276.325 325.076 276.325C322.051 276.325 320.626 274.075 320.626 271.575V264.075H322.126V271.325C322.126 273.225 323.001 274.975 325.351 274.975C327.476 274.975 328.726 273.35 328.726 271.35V264.075H330.226V273.725C330.226 274.625 330.301 275.475 330.376 276H328.951C328.901 275.75 328.826 275.075 328.826 274.325V274.15ZM340.328 264.05V265.625C340.053 265.55 339.678 265.5 339.278 265.5C337.253 265.5 335.753 266.8 335.753 269.525V276H334.253V264.075H335.728V266.3C336.453 264.65 337.828 263.925 339.403 263.925C339.803 263.925 340.128 263.975 340.328 264.05ZM350.423 260.3V264.075H353.523V265.425H350.423V272.625C350.423 274.075 351.098 274.775 352.448 274.775C352.873 274.775 353.298 274.675 353.523 274.575V275.9C353.323 276 352.773 276.125 352.048 276.125C350.123 276.125 348.923 274.95 348.923 272.775V265.425H346.398V264.075H347.298C348.473 264.075 348.973 263.55 348.973 262.325V260.3H350.423ZM356.951 269.075H364.901C364.851 266.85 363.426 265.1 360.926 265.1C358.701 265.1 357.101 266.875 356.951 269.075ZM365.076 272.15L366.401 272.625C365.726 274.65 363.926 276.325 361.176 276.325C358.026 276.325 355.376 274 355.376 270C355.376 266.25 357.926 263.75 360.901 263.75C364.426 263.75 366.451 266.25 366.476 269.775C366.476 269.975 366.476 270.125 366.451 270.325H356.901V270.425C356.926 273.175 358.826 274.975 361.176 274.975C363.326 274.975 364.576 273.725 365.076 272.15ZM372.605 276.3C370.105 276.3 368.705 274.65 368.705 272.925C368.705 270.9 370.105 269.725 372.28 269.4L375.455 268.925C376.48 268.775 376.705 268.325 376.705 267.775C376.705 266.2 375.655 265.075 373.705 265.075C371.805 265.075 370.555 266.125 370.355 267.85L368.955 267.55C369.23 265.275 371.13 263.775 373.68 263.775C376.78 263.775 378.205 265.65 378.205 267.925V273.95C378.205 274.9 378.28 275.5 378.38 276H376.905C376.855 275.725 376.755 274.925 376.755 273.95C376.205 275.075 374.78 276.3 372.605 276.3ZM372.78 275.025C375.055 275.025 376.705 273.525 376.705 271.125V269.775C376.63 269.85 376.305 270 375.83 270.075L372.505 270.575C371.105 270.775 370.23 271.55 370.23 272.85C370.23 273.95 371.13 275.025 372.78 275.025ZM383.58 276H382.08V264.075H383.555V266.05C384.08 264.8 385.505 263.75 387.355 263.75C389.205 263.75 390.63 264.775 391.105 266.45C391.83 264.725 393.305 263.75 395.205 263.75C397.53 263.75 399.33 265.35 399.33 268.1V276H397.83V268.275C397.83 266.475 396.78 265.075 394.78 265.075C392.805 265.075 391.455 266.725 391.455 268.675V276H389.955V268.275C389.955 266.475 388.93 265.075 386.905 265.075C384.93 265.075 383.58 266.7 383.58 268.675V276ZM401.897 259.275C401.897 258.65 402.422 258.1 403.147 258.1C403.872 258.1 404.547 258.675 404.547 259.775C404.547 262.125 403.122 263.55 401.722 263.875V262.975C402.797 262.675 403.472 261.475 403.497 260.375C403.422 260.45 403.272 260.5 403.047 260.5C402.397 260.5 401.897 260 401.897 259.275ZM405.128 272.875L406.503 272.4C406.728 273.85 407.828 275.025 409.778 275.025C411.253 275.025 412.428 274.15 412.428 272.9C412.428 271.8 411.678 271.2 410.403 270.9L408.478 270.45C406.728 270.05 405.553 269 405.553 267.275C405.553 265.35 407.403 263.775 409.578 263.775C412.353 263.775 413.528 265.425 413.853 266.85L412.528 267.35C412.303 266.2 411.478 265.075 409.578 265.075C408.228 265.075 407.028 265.925 407.028 267.175C407.028 268.2 407.678 268.8 408.903 269.075L410.803 269.5C412.778 269.95 413.903 271.075 413.903 272.8C413.903 274.575 412.403 276.325 409.753 276.325C406.828 276.325 405.353 274.45 405.128 272.875ZM426.609 276.3C424.109 276.3 422.709 274.65 422.709 272.925C422.709 270.9 424.109 269.725 426.284 269.4L429.459 268.925C430.484 268.775 430.709 268.325 430.709 267.775C430.709 266.2 429.659 265.075 427.709 265.075C425.809 265.075 424.559 266.125 424.359 267.85L422.959 267.55C423.234 265.275 425.134 263.775 427.684 263.775C430.784 263.775 432.209 265.65 432.209 267.925V273.95C432.209 274.9 432.284 275.5 432.384 276H430.909C430.859 275.725 430.759 274.925 430.759 273.95C430.209 275.075 428.784 276.3 426.609 276.3ZM426.784 275.025C429.059 275.025 430.709 273.525 430.709 271.125V269.775C430.634 269.85 430.309 270 429.834 270.075L426.509 270.575C425.109 270.775 424.234 271.55 424.234 272.85C424.234 273.95 425.134 275.025 426.784 275.025ZM441.109 265.1C438.734 265.1 436.759 266.975 436.759 270.05C436.759 273.075 438.709 274.975 441.109 274.975C443.409 274.975 444.584 273.375 444.984 272.05L446.309 272.6C445.734 274.45 443.984 276.325 441.109 276.325C437.734 276.325 435.259 273.7 435.259 270.05C435.259 266.375 437.759 263.75 441.109 263.75C443.959 263.75 445.659 265.5 446.209 267.5L444.884 268.05C444.484 266.65 443.409 265.1 441.109 265.1ZM454.341 265.1C451.966 265.1 449.991 266.975 449.991 270.05C449.991 273.075 451.941 274.975 454.341 274.975C456.641 274.975 457.816 273.375 458.216 272.05L459.541 272.6C458.966 274.45 457.216 276.325 454.341 276.325C450.966 276.325 448.491 273.7 448.491 270.05C448.491 266.375 450.991 263.75 454.341 263.75C457.191 263.75 458.891 265.5 459.441 267.5L458.116 268.05C457.716 266.65 456.641 265.1 454.341 265.1ZM470.599 274.15C470.049 275.3 468.724 276.325 466.849 276.325C463.824 276.325 462.399 274.075 462.399 271.575V264.075H463.899V271.325C463.899 273.225 464.774 274.975 467.124 274.975C469.249 274.975 470.499 273.35 470.499 271.35V264.075H471.999V273.725C471.999 274.625 472.074 275.475 472.149 276H470.724C470.674 275.75 470.599 275.075 470.599 274.325V274.15ZM482.1 264.05V265.625C481.825 265.55 481.45 265.5 481.05 265.5C479.025 265.5 477.525 266.8 477.525 269.525V276H476.025V264.075H477.5V266.3C478.225 264.65 479.6 263.925 481.175 263.925C481.575 263.925 481.9 263.975 482.1 264.05ZM487.376 276.3C484.876 276.3 483.476 274.65 483.476 272.925C483.476 270.9 484.876 269.725 487.051 269.4L490.226 268.925C491.251 268.775 491.476 268.325 491.476 267.775C491.476 266.2 490.426 265.075 488.476 265.075C486.576 265.075 485.326 266.125 485.126 267.85L483.726 267.55C484.001 265.275 485.901 263.775 488.451 263.775C491.551 263.775 492.976 265.65 492.976 267.925V273.95C492.976 274.9 493.051 275.5 493.151 276H491.676C491.626 275.725 491.526 274.925 491.526 273.95C490.976 275.075 489.551 276.3 487.376 276.3ZM487.551 275.025C489.826 275.025 491.476 273.525 491.476 271.125V269.775C491.401 269.85 491.076 270 490.601 270.075L487.276 270.575C485.876 270.775 485.001 271.55 485.001 272.85C485.001 273.95 485.901 275.025 487.551 275.025ZM499.154 260.3V264.075H502.254V265.425H499.154V272.625C499.154 274.075 499.829 274.775 501.179 274.775C501.604 274.775 502.029 274.675 502.254 274.575V275.9C502.054 276 501.504 276.125 500.779 276.125C498.854 276.125 497.654 274.95 497.654 272.775V265.425H495.129V264.075H496.029C497.204 264.075 497.704 263.55 497.704 262.325V260.3H499.154ZM505.682 269.075H513.632C513.582 266.85 512.157 265.1 509.657 265.1C507.432 265.1 505.832 266.875 505.682 269.075ZM513.807 272.15L515.132 272.625C514.457 274.65 512.657 276.325 509.907 276.325C506.757 276.325 504.107 274 504.107 270C504.107 266.25 506.657 263.75 509.632 263.75C513.157 263.75 515.182 266.25 515.207 269.775C515.207 269.975 515.207 270.125 515.182 270.325H505.632V270.425C505.657 273.175 507.557 274.975 509.907 274.975C512.057 274.975 513.307 273.725 513.807 272.15ZM284.239 311H282.739V299.075H284.239V311ZM282.239 294.125C282.239 293.4 282.789 292.875 283.489 292.875C284.189 292.875 284.739 293.4 284.739 294.125C284.739 294.85 284.189 295.375 283.489 295.375C282.789 295.375 282.239 294.85 282.239 294.125ZM289.732 303.875V311H288.232V299.075H289.682V300.975C290.332 299.7 291.732 298.775 293.557 298.775C296.357 298.775 297.782 300.775 297.782 303.225V311H296.282V303.475C296.282 301.6 295.357 300.125 293.057 300.125C291.007 300.125 289.732 301.85 289.732 303.875ZM307.263 300.425H303.938V311H302.438V300.425H299.988V299.075H302.438V296.6C302.438 294.075 303.988 292.75 305.987 292.75C306.613 292.75 307.063 292.875 307.338 293V294.35C307.113 294.25 306.738 294.15 306.213 294.15C305.013 294.15 303.938 294.775 303.938 296.675V299.075H307.263V300.425ZM314.426 311.325C311.101 311.325 308.501 308.775 308.501 305.05C308.501 301.3 311.076 298.775 314.426 298.775C317.751 298.775 320.351 301.3 320.351 305.05C320.351 308.775 317.751 311.325 314.426 311.325ZM310.026 305.05C310.026 308.15 312.076 309.975 314.426 309.975C316.776 309.975 318.826 308.15 318.826 305.05C318.826 301.925 316.776 300.125 314.426 300.125C312.076 300.125 310.026 301.925 310.026 305.05ZM329.61 299.05V300.625C329.335 300.55 328.96 300.5 328.56 300.5C326.535 300.5 325.035 301.8 325.035 304.525V311H323.535V299.075H325.01V301.3C325.735 299.65 327.11 298.925 328.685 298.925C329.085 298.925 329.41 298.975 329.61 299.05ZM333.458 311H331.958V299.075H333.433V301.05C333.958 299.8 335.383 298.75 337.233 298.75C339.083 298.75 340.508 299.775 340.983 301.45C341.708 299.725 343.183 298.75 345.083 298.75C347.408 298.75 349.208 300.35 349.208 303.1V311H347.708V303.275C347.708 301.475 346.658 300.075 344.658 300.075C342.683 300.075 341.333 301.725 341.333 303.675V311H339.833V303.275C339.833 301.475 338.808 300.075 336.783 300.075C334.808 300.075 333.458 301.7 333.458 303.675V311ZM356.101 311.3C353.601 311.3 352.201 309.65 352.201 307.925C352.201 305.9 353.601 304.725 355.776 304.4L358.951 303.925C359.976 303.775 360.201 303.325 360.201 302.775C360.201 301.2 359.151 300.075 357.201 300.075C355.301 300.075 354.051 301.125 353.851 302.85L352.451 302.55C352.726 300.275 354.626 298.775 357.176 298.775C360.276 298.775 361.701 300.65 361.701 302.925V308.95C361.701 309.9 361.776 310.5 361.876 311H360.401C360.351 310.725 360.251 309.925 360.251 308.95C359.701 310.075 358.276 311.3 356.101 311.3ZM356.276 310.025C358.551 310.025 360.201 308.525 360.201 306.125V304.775C360.126 304.85 359.801 305 359.326 305.075L356.001 305.575C354.601 305.775 353.726 306.55 353.726 307.85C353.726 308.95 354.626 310.025 356.276 310.025ZM367.879 295.3V299.075H370.979V300.425H367.879V307.625C367.879 309.075 368.554 309.775 369.904 309.775C370.329 309.775 370.754 309.675 370.979 309.575V310.9C370.779 311 370.229 311.125 369.504 311.125C367.579 311.125 366.379 309.95 366.379 307.775V300.425H363.854V299.075H364.754C365.929 299.075 366.429 298.55 366.429 297.325V295.3H367.879ZM375.157 311H373.657V299.075H375.157V311ZM373.157 294.125C373.157 293.4 373.707 292.875 374.407 292.875C375.107 292.875 375.657 293.4 375.657 294.125C375.657 294.85 375.107 295.375 374.407 295.375C373.707 295.375 373.157 294.85 373.157 294.125ZM384.25 311.325C380.925 311.325 378.325 308.775 378.325 305.05C378.325 301.3 380.9 298.775 384.25 298.775C387.575 298.775 390.175 301.3 390.175 305.05C390.175 308.775 387.575 311.325 384.25 311.325ZM379.85 305.05C379.85 308.15 381.9 309.975 384.25 309.975C386.6 309.975 388.65 308.15 388.65 305.05C388.65 301.925 386.6 300.125 384.25 300.125C381.9 300.125 379.85 301.925 379.85 305.05ZM394.859 303.875V311H393.359V299.075H394.809V300.975C395.459 299.7 396.859 298.775 398.684 298.775C401.484 298.775 402.909 300.775 402.909 303.225V311H401.409V303.475C401.409 301.6 400.484 300.125 398.184 300.125C396.134 300.125 394.859 301.85 394.859 303.875ZM414.757 303.825V311H413.257V292.95H414.757V300.95C415.382 299.75 416.732 298.75 418.582 298.75C421.407 298.75 422.807 300.75 422.807 303.2V311H421.307V303.45C421.307 301.575 420.332 300.1 418.082 300.1C416.057 300.1 414.757 301.875 414.757 303.825ZM427.435 304.075H435.385C435.335 301.85 433.91 300.1 431.41 300.1C429.185 300.1 427.585 301.875 427.435 304.075ZM435.56 307.15L436.885 307.625C436.21 309.65 434.41 311.325 431.66 311.325C428.51 311.325 425.86 309 425.86 305C425.86 301.25 428.41 298.75 431.385 298.75C434.91 298.75 436.935 301.25 436.96 304.775C436.96 304.975 436.96 305.125 436.935 305.325H427.385V305.425C427.41 308.175 429.31 309.975 431.66 309.975C433.81 309.975 435.06 308.725 435.56 307.15ZM446.138 299.05V300.625C445.863 300.55 445.488 300.5 445.088 300.5C443.063 300.5 441.563 301.8 441.563 304.525V311H440.063V299.075H441.538V301.3C442.263 299.65 443.638 298.925 445.213 298.925C445.613 298.925 445.938 298.975 446.138 299.05ZM448.919 304.075H456.869C456.819 301.85 455.394 300.1 452.894 300.1C450.669 300.1 449.069 301.875 448.919 304.075ZM457.044 307.15L458.369 307.625C457.694 309.65 455.894 311.325 453.144 311.325C449.994 311.325 447.344 309 447.344 305C447.344 301.25 449.894 298.75 452.869 298.75C456.394 298.75 458.419 301.25 458.444 304.775C458.444 304.975 458.444 305.125 458.419 305.325H448.869V305.425C448.894 308.175 450.794 309.975 453.144 309.975C455.294 309.975 456.544 308.725 457.044 307.15ZM461.098 309.8C461.098 309.075 461.673 308.475 462.398 308.475C463.148 308.475 463.723 309.075 463.723 309.8C463.723 310.525 463.148 311.1 462.398 311.1C461.673 311.1 461.098 310.525 461.098 309.8Z" fill="white"/>
<path d="M883.25 338H848.875V321.5H908V336L885.875 357.125C897.875 359.125 909.375 365.375 909.375 381.75C909.375 398.375 897.375 410.5 877.875 410.5C862.125 410.5 851.25 404.25 843.75 395.375L857 382.75C863 389.5 869.25 393.25 878.125 393.25C885.375 393.25 890.5 389.125 890.5 382.5C890.5 375.25 884.375 371.25 873.375 371.25H865.375L862.375 359L883.25 338ZM944.637 409H924.387V389H944.637V409Z" fill="white"/>
<circle cx="883.5" cy="374.5" r="113" stroke="#23B6DF" stroke-width="5" stroke-dasharray="10 10"/>
<path d="M162.5 71.0005L162.5 72.0005L162.5 72.0005L162.5 71.0005ZM127.5 106L128.5 106L127.5 106ZM127.5 336.501L126.5 336.501L127.5 336.501ZM162.5 371.501L162.5 372.501L162.5 371.501ZM717.207 372.208C717.598 371.817 717.598 371.184 717.207 370.793L710.843 364.429C710.453 364.039 709.819 364.039 709.429 364.429C709.038 364.82 709.038 365.453 709.429 365.844L715.086 371.5L709.429 377.157C709.038 377.548 709.038 378.181 709.429 378.572C709.819 378.962 710.453 378.962 710.843 378.572L717.207 372.208ZM293.5 70.0006L288.822 70.0006L288.822 72.0006L293.5 72.0006L293.5 70.0006ZM279.464 70.0006L270.107 70.0005L270.107 72.0006L279.464 72.0006L279.464 70.0006ZM260.75 70.0005L251.393 70.0005L251.393 72.0005L260.75 72.0005L260.75 70.0005ZM242.036 70.0005L232.679 70.0005L232.679 72.0005L242.036 72.0005L242.036 70.0005ZM223.322 70.0005L213.964 70.0005L213.964 72.0005L223.322 72.0005L223.322 70.0005ZM204.607 70.0005L195.25 70.0005L195.25 72.0005L204.607 72.0005L204.607 70.0005ZM185.893 70.0005L176.536 70.0005L176.536 72.0005L185.893 72.0005L185.893 70.0005ZM167.179 70.0005L162.5 70.0005L162.5 72.0005L167.179 72.0005L167.179 70.0005ZM162.5 70.0005C160.907 70.0005 159.338 70.104 157.799 70.3047L158.058 72.2879C159.511 72.0983 160.994 72.0005 162.5 72.0005L162.5 70.0005ZM148.719 72.7326C145.792 73.9464 143.06 75.5352 140.583 77.4386L141.802 79.0244C144.142 77.2263 146.722 75.726 149.486 74.58L148.719 72.7326ZM133.938 84.0837C132.035 86.5606 130.446 89.2926 129.232 92.2198L131.08 92.986C132.226 90.2224 133.726 87.6423 135.524 85.3024L133.938 84.0837ZM126.804 101.3C126.604 102.839 126.5 104.408 126.5 106L128.5 106C128.5 104.494 128.598 103.012 128.788 101.558L126.804 101.3ZM126.5 106L126.5 110.803L128.5 110.803L128.5 106L126.5 106ZM126.5 120.407L126.5 130.011L128.5 130.011L128.5 120.407L126.5 120.407ZM126.5 139.615L126.5 149.219L128.5 149.219L128.5 139.615L126.5 139.615ZM126.5 158.823L126.5 168.428L128.5 168.428L128.5 158.823L126.5 158.823ZM126.5 178.032L126.5 187.636L128.5 187.636L128.5 178.032L126.5 178.032ZM126.5 197.24L126.5 206.844L128.5 206.844L128.5 197.24L126.5 197.24ZM126.5 216.448L126.5 226.053L128.5 226.053L128.5 216.448L126.5 216.448ZM126.5 235.657L126.5 245.261L128.5 245.261L128.5 235.657L126.5 235.657ZM126.5 254.865L126.5 264.469L128.5 264.469L128.5 254.865L126.5 254.865ZM126.5 274.073L126.5 283.678L128.5 283.678L128.5 274.073L126.5 274.073ZM126.5 293.282L126.5 302.886L128.5 302.886L128.5 293.282L126.5 293.282ZM126.5 312.49L126.5 322.094L128.5 322.094L128.5 312.49L126.5 312.49ZM126.5 331.698L126.5 336.501L128.5 336.5L128.5 331.698L126.5 331.698ZM126.5 336.501C126.5 338.093 126.604 339.662 126.804 341.201L128.788 340.942C128.598 339.489 128.5 338.006 128.5 336.5L126.5 336.501ZM129.232 350.281C130.446 353.208 132.035 355.94 133.938 358.417L135.524 357.199C133.726 354.859 132.226 352.279 131.08 349.515L129.232 350.281ZM140.583 365.062C143.06 366.966 145.792 368.555 148.719 369.768L149.486 367.921C146.722 366.775 144.142 365.275 141.802 363.477L140.583 365.062ZM157.799 372.196C159.338 372.397 160.907 372.501 162.5 372.501L162.5 370.501C160.994 370.5 159.511 370.403 158.058 370.213L157.799 372.196ZM162.5 372.501L167.447 372.5L167.447 370.5L162.5 370.501L162.5 372.501ZM177.339 372.5L187.232 372.501L187.232 370.501L177.339 370.501L177.339 372.5ZM197.125 372.5L207.018 372.5L207.018 370.501L197.125 370.5L197.125 372.5ZM216.911 372.501L226.804 372.5L226.804 370.5L216.911 370.501L216.911 372.501ZM236.697 372.5L246.589 372.501L246.589 370.501L236.696 370.5L236.697 372.5ZM256.482 372.501L266.375 372.5L266.375 370.5L256.482 370.5L256.482 372.501ZM276.268 372.5L286.161 372.501L286.161 370.5L276.268 370.501L276.268 372.5ZM296.054 372.5L305.946 372.5L305.946 370.5L296.054 370.5L296.054 372.5ZM315.839 372.5L325.732 372.5L325.732 370.5L315.839 370.5L315.839 372.5ZM335.625 372.5L345.518 372.5L345.518 370.5L335.625 370.5L335.625 372.5ZM355.411 372.5L365.304 372.5L365.304 370.5L355.411 370.5L355.411 372.5ZM375.196 372.5L385.089 372.5L385.089 370.5L375.196 370.5L375.196 372.5ZM394.982 372.5L404.875 372.5L404.875 370.5L394.982 370.5L394.982 372.5ZM414.768 372.5L424.661 372.5L424.661 370.5L414.768 370.5L414.768 372.5ZM434.554 372.5L444.446 372.5L444.446 370.5L434.554 370.5L434.554 372.5ZM454.339 372.5L464.232 372.5L464.232 370.5L454.339 370.5L454.339 372.5ZM474.125 372.5L484.018 372.5L484.018 370.5L474.125 370.5L474.125 372.5ZM493.911 372.5L503.804 372.5L503.804 370.5L493.911 370.5L493.911 372.5ZM513.696 372.5L523.589 372.5L523.589 370.5L513.696 370.5L513.696 372.5ZM533.482 372.5L543.375 372.5L543.375 370.5L533.482 370.5L533.482 372.5ZM553.268 372.5L563.161 372.5L563.161 370.5L553.268 370.5L553.268 372.5ZM573.054 372.5L582.946 372.5L582.946 370.5L573.054 370.5L573.054 372.5ZM592.839 372.5L602.732 372.5L602.732 370.5L592.839 370.5L592.839 372.5ZM612.625 372.5L622.518 372.5L622.518 370.5L612.625 370.5L612.625 372.5ZM632.411 372.5L642.303 372.5L642.303 370.5L632.411 370.5L632.411 372.5ZM652.196 372.5L662.089 372.5L662.089 370.5L652.196 370.5L652.196 372.5ZM671.982 372.5L681.875 372.5L681.875 370.5L671.982 370.5L671.982 372.5ZM691.768 372.5L701.661 372.5L701.661 370.5L691.768 370.5L691.768 372.5ZM711.554 372.5L716.5 372.5L716.5 370.5L711.554 370.5L711.554 372.5ZM162.5 71.0005L162.5 72.0005L162.5 72.0005L162.5 71.0005ZM127.5 106L128.5 106L127.5 106ZM127.5 336.501L126.5 336.501L127.5 336.501ZM162.5 371.501L162.5 372.501L162.5 371.501ZM717.207 372.208C717.598 371.817 717.598 371.184 717.207 370.793L710.843 364.429C710.453 364.039 709.819 364.039 709.429 364.429C709.038 364.82 709.038 365.453 709.429 365.844L715.086 371.5L709.429 377.157C709.038 377.548 709.038 378.181 709.429 378.572C709.819 378.962 710.453 378.962 710.843 378.572L717.207 372.208ZM293.5 70.0006L288.822 70.0006L288.822 72.0006L293.5 72.0006L293.5 70.0006ZM279.464 70.0006L270.107 70.0005L270.107 72.0006L279.464 72.0006L279.464 70.0006ZM260.75 70.0005L251.393 70.0005L251.393 72.0005L260.75 72.0005L260.75 70.0005ZM242.036 70.0005L232.679 70.0005L232.679 72.0005L242.036 72.0005L242.036 70.0005ZM223.322 70.0005L213.964 70.0005L213.964 72.0005L223.322 72.0005L223.322 70.0005ZM204.607 70.0005L195.25 70.0005L195.25 72.0005L204.607 72.0005L204.607 70.0005ZM185.893 70.0005L176.536 70.0005L176.536 72.0005L185.893 72.0005L185.893 70.0005ZM167.179 70.0005L162.5 70.0005L162.5 72.0005L167.179 72.0005L167.179 70.0005ZM162.5 70.0005C160.907 70.0005 159.338 70.104 157.799 70.3047L158.058 72.2879C159.511 72.0983 160.994 72.0005 162.5 72.0005L162.5 70.0005ZM148.719 72.7326C145.792 73.9464 143.06 75.5352 140.583 77.4386L141.802 79.0244C144.142 77.2263 146.722 75.726 149.486 74.58L148.719 72.7326ZM133.938 84.0837C132.035 86.5606 130.446 89.2926 129.232 92.2198L131.08 92.986C132.226 90.2224 133.726 87.6423 135.524 85.3024L133.938 84.0837ZM126.804 101.3C126.604 102.839 126.5 104.408 126.5 106L128.5 106C128.5 104.494 128.598 103.012 128.788 101.558L126.804 101.3ZM126.5 106L126.5 110.803L128.5 110.803L128.5 106L126.5 106ZM126.5 120.407L126.5 130.011L128.5 130.011L128.5 120.407L126.5 120.407ZM126.5 139.615L126.5 149.219L128.5 149.219L128.5 139.615L126.5 139.615ZM126.5 158.823L126.5 168.428L128.5 168.428L128.5 158.823L126.5 158.823ZM126.5 178.032L126.5 187.636L128.5 187.636L128.5 178.032L126.5 178.032ZM126.5 197.24L126.5 206.844L128.5 206.844L128.5 197.24L126.5 197.24ZM126.5 216.448L126.5 226.053L128.5 226.053L128.5 216.448L126.5 216.448ZM126.5 235.657L126.5 245.261L128.5 245.261L128.5 235.657L126.5 235.657ZM126.5 254.865L126.5 264.469L128.5 264.469L128.5 254.865L126.5 254.865ZM126.5 274.073L126.5 283.678L128.5 283.678L128.5 274.073L126.5 274.073ZM126.5 293.282L126.5 302.886L128.5 302.886L128.5 293.282L126.5 293.282ZM126.5 312.49L126.5 322.094L128.5 322.094L128.5 312.49L126.5 312.49ZM126.5 331.698L126.5 336.501L128.5 336.5L128.5 331.698L126.5 331.698ZM126.5 336.501C126.5 338.093 126.604 339.662 126.804 341.201L128.788 340.942C128.598 339.489 128.5 338.006 128.5 336.5L126.5 336.501ZM129.232 350.281C130.446 353.208 132.035 355.94 133.938 358.417L135.524 357.199C133.726 354.859 132.226 352.279 131.08 349.515L129.232 350.281ZM140.583 365.062C143.06 366.966 145.792 368.555 148.719 369.768L149.486 367.921C146.722 366.775 144.142 365.275 141.802 363.477L140.583 365.062ZM157.799 372.196C159.338 372.397 160.907 372.501 162.5 372.501L162.5 370.501C160.994 370.5 159.511 370.403 158.058 370.213L157.799 372.196ZM162.5 372.501L167.447 372.5L167.447 370.5L162.5 370.501L162.5 372.501ZM177.339 372.5L187.232 372.501L187.232 370.501L177.339 370.501L177.339 372.5ZM197.125 372.5L207.018 372.5L207.018 370.501L197.125 370.5L197.125 372.5ZM216.911 372.501L226.804 372.5L226.804 370.5L216.911 370.501L216.911 372.501ZM236.697 372.5L246.589 372.501L246.589 370.501L236.696 370.5L236.697 372.5ZM256.482 372.501L266.375 372.5L266.375 370.5L256.482 370.5L256.482 372.501ZM276.268 372.5L286.161 372.501L286.161 370.5L276.268 370.501L276.268 372.5ZM296.054 372.5L305.946 372.5L305.946 370.5L296.054 370.5L296.054 372.5ZM315.839 372.5L325.732 372.5L325.732 370.5L315.839 370.5L315.839 372.5ZM335.625 372.5L345.518 372.5L345.518 370.5L335.625 370.5L335.625 372.5ZM355.411 372.5L365.304 372.5L365.304 370.5L355.411 370.5L355.411 372.5ZM375.196 372.5L385.089 372.5L385.089 370.5L375.196 370.5L375.196 372.5ZM394.982 372.5L404.875 372.5L404.875 370.5L394.982 370.5L394.982 372.5ZM414.768 372.5L424.661 372.5L424.661 370.5L414.768 370.5L414.768 372.5ZM434.554 372.5L444.446 372.5L444.446 370.5L434.554 370.5L434.554 372.5ZM454.339 372.5L464.232 372.5L464.232 370.5L454.339 370.5L454.339 372.5ZM474.125 372.5L484.018 372.5L484.018 370.5L474.125 370.5L474.125 372.5ZM493.911 372.5L503.804 372.5L503.804 370.5L493.911 370.5L493.911 372.5ZM513.696 372.5L523.589 372.5L523.589 370.5L513.696 370.5L513.696 372.5ZM533.482 372.5L543.375 372.5L543.375 370.5L533.482 370.5L533.482 372.5ZM553.268 372.5L563.161 372.5L563.161 370.5L553.268 370.5L553.268 372.5ZM573.054 372.5L582.946 372.5L582.946 370.5L573.054 370.5L573.054 372.5ZM592.839 372.5L602.732 372.5L602.732 370.5L592.839 370.5L592.839 372.5ZM612.625 372.5L622.518 372.5L622.518 370.5L612.625 370.5L612.625 372.5ZM632.411 372.5L642.303 372.5L642.303 370.5L632.411 370.5L632.411 372.5ZM652.196 372.5L662.089 372.5L662.089 370.5L652.196 370.5L652.196 372.5ZM671.982 372.5L681.875 372.5L681.875 370.5L671.982 370.5L671.982 372.5ZM691.768 372.5L701.661 372.5L701.661 370.5L691.768 370.5L691.768 372.5ZM711.554 372.5L716.5 372.5L716.5 370.5L711.554 370.5L711.554 372.5Z" fill="#23B6DF"/>
<path d="M1588.5 370.5L1588.5 371.5L1588.5 371.5L1588.5 370.5ZM1623.5 405.5L1624.5 405.5L1624.5 405.5L1623.5 405.5ZM1623.5 603.5L1622.5 603.5L1622.5 603.5L1623.5 603.5ZM1588.5 638.5L1588.5 637.5H1588.5L1588.5 638.5ZM658.793 637.793C658.402 638.184 658.402 638.817 658.793 639.207L665.157 645.571C665.547 645.962 666.18 645.962 666.571 645.571C666.961 645.181 666.961 644.548 666.571 644.157L660.914 638.5L666.571 632.843C666.961 632.453 666.961 631.82 666.571 631.429C666.18 631.039 665.547 631.039 665.157 631.429L658.793 637.793ZM659.5 639.5L664.549 639.5L664.549 637.5L659.5 637.5L659.5 639.5ZM674.647 639.5L684.744 639.5L684.744 637.5L674.647 637.5L674.647 639.5ZM694.842 639.5L704.94 639.5L704.94 637.5L694.842 637.5L694.842 639.5ZM715.038 639.5L725.136 639.5L725.136 637.5L715.038 637.5L715.038 639.5ZM735.233 639.5L745.331 639.5L745.331 637.5L735.233 637.5L735.233 639.5ZM755.429 639.5L765.527 639.5L765.527 637.5L755.429 637.5L755.429 639.5ZM775.625 639.5L785.723 639.5L785.723 637.5L775.625 637.5L775.625 639.5ZM795.82 639.5L805.918 639.5L805.918 637.5L795.82 637.5L795.82 639.5ZM816.016 639.5L826.114 639.5L826.114 637.5L816.016 637.5L816.016 639.5ZM836.212 639.5L846.31 639.5L846.31 637.5L836.212 637.5L836.212 639.5ZM856.407 639.5L866.505 639.5L866.505 637.5L856.407 637.5L856.407 639.5ZM876.603 639.5L886.701 639.5L886.701 637.5L876.603 637.5L876.603 639.5ZM896.799 639.5L906.896 639.5L906.896 637.5L896.799 637.5L896.799 639.5ZM916.994 639.5L927.092 639.5L927.092 637.5L916.994 637.5L916.994 639.5ZM937.19 639.5L947.288 639.5L947.288 637.5L937.19 637.5L937.19 639.5ZM957.386 639.5L967.484 639.5L967.484 637.5L957.386 637.5L957.386 639.5ZM977.581 639.5L987.679 639.5L987.679 637.5L977.581 637.5L977.581 639.5ZM997.777 639.5L1007.87 639.5L1007.87 637.5L997.777 637.5L997.777 639.5ZM1017.97 639.5L1028.07 639.5L1028.07 637.5L1017.97 637.5L1017.97 639.5ZM1038.17 639.5L1048.27 639.5L1048.27 637.5L1038.17 637.5L1038.17 639.5ZM1058.36 639.5L1068.46 639.5L1068.46 637.5L1058.36 637.5L1058.36 639.5ZM1078.56 639.5L1088.66 639.5L1088.66 637.5L1078.56 637.5L1078.56 639.5ZM1098.76 639.5L1108.85 639.5L1108.85 637.5L1098.76 637.5L1098.76 639.5ZM1118.95 639.5L1129.05 639.5L1129.05 637.5L1118.95 637.5L1118.95 639.5ZM1139.15 639.5L1149.24 639.5L1149.24 637.5L1139.15 637.5L1139.15 639.5ZM1159.34 639.5L1169.44 639.5L1169.44 637.5L1159.34 637.5L1159.34 639.5ZM1179.54 639.5L1189.64 639.5L1189.64 637.5L1179.54 637.5L1179.54 639.5ZM1199.73 639.5L1209.83 639.5L1209.83 637.5L1199.73 637.5L1199.73 639.5ZM1219.93 639.5L1230.03 639.5L1230.03 637.5L1219.93 637.5L1219.93 639.5ZM1240.13 639.5L1250.22 639.5L1250.22 637.5L1240.13 637.5L1240.13 639.5ZM1260.32 639.5L1270.42 639.5L1270.42 637.5L1260.32 637.5L1260.32 639.5ZM1280.52 639.5L1290.61 639.5L1290.61 637.5L1280.52 637.5L1280.52 639.5ZM1300.71 639.5L1310.81 639.5L1310.81 637.5L1300.71 637.5L1300.71 639.5ZM1320.91 639.5L1331.01 639.5L1331.01 637.5L1320.91 637.5L1320.91 639.5ZM1341.1 639.5L1351.2 639.5L1351.2 637.5L1341.1 637.5L1341.1 639.5ZM1361.3 639.5L1371.4 639.5L1371.4 637.5L1361.3 637.5L1361.3 639.5ZM1381.49 639.5L1391.59 639.5L1391.59 637.5L1381.49 637.5L1381.49 639.5ZM1401.69 639.5L1411.79 639.5L1411.79 637.5L1401.69 637.5L1401.69 639.5ZM1421.89 639.5L1431.98 639.5L1431.98 637.5L1421.89 637.5L1421.89 639.5ZM1442.08 639.5L1452.18 639.5L1452.18 637.5L1442.08 637.5L1442.08 639.5ZM1462.28 639.5L1472.38 639.5L1472.38 637.5L1462.28 637.5L1462.28 639.5ZM1482.47 639.5L1492.57 639.5L1492.57 637.5L1482.47 637.5L1482.47 639.5ZM1502.67 639.5L1512.77 639.5L1512.77 637.5L1502.67 637.5L1502.67 639.5ZM1522.86 639.5L1532.96 639.5L1532.96 637.5L1522.86 637.5L1522.86 639.5ZM1543.06 639.5L1553.16 639.5L1553.16 637.5L1543.06 637.5L1543.06 639.5ZM1563.26 639.5L1573.35 639.5L1573.35 637.5L1563.26 637.5L1563.26 639.5ZM1583.45 639.5L1588.5 639.5L1588.5 637.5L1583.45 637.5L1583.45 639.5ZM1588.5 639.5C1590.09 639.5 1591.66 639.397 1593.2 639.196L1592.94 637.213C1591.49 637.402 1590.01 637.5 1588.5 637.5L1588.5 639.5ZM1602.28 636.768C1605.21 635.554 1607.94 633.966 1610.42 632.062L1609.2 630.476C1606.86 632.275 1604.28 633.775 1601.51 634.921L1602.28 636.768ZM1617.06 625.417C1618.97 622.94 1620.55 620.208 1621.77 617.281L1619.92 616.515C1618.77 619.278 1617.27 621.859 1615.48 624.198L1617.06 625.417ZM1624.2 608.201C1624.4 606.662 1624.5 605.093 1624.5 603.5L1622.5 603.5C1622.5 605.006 1622.4 606.489 1622.21 607.942L1624.2 608.201ZM1624.5 603.5L1624.5 598.55L1622.5 598.55L1622.5 603.5L1624.5 603.5ZM1624.5 588.65L1624.5 578.75L1622.5 578.75L1622.5 588.65L1624.5 588.65ZM1624.5 568.85L1624.5 558.95L1622.5 558.95L1622.5 568.85L1624.5 568.85ZM1624.5 549.05L1624.5 539.15L1622.5 539.15L1622.5 549.05L1624.5 549.05ZM1624.5 529.25L1624.5 519.35L1622.5 519.35L1622.5 529.25L1624.5 529.25ZM1624.5 509.45L1624.5 499.55L1622.5 499.55L1622.5 509.45L1624.5 509.45ZM1624.5 489.65L1624.5 479.75L1622.5 479.75L1622.5 489.65L1624.5 489.65ZM1624.5 469.85L1624.5 459.95L1622.5 459.95L1622.5 469.85L1624.5 469.85ZM1624.5 450.05L1624.5 440.15L1622.5 440.15L1622.5 450.05L1624.5 450.05ZM1624.5 430.25L1624.5 420.35L1622.5 420.35L1622.5 430.25L1624.5 430.25ZM1624.5 410.45L1624.5 405.5L1622.5 405.5L1622.5 410.45L1624.5 410.45ZM1624.5 405.5C1624.5 403.907 1624.4 402.338 1624.2 400.799L1622.21 401.058C1622.4 402.511 1622.5 403.994 1622.5 405.5L1624.5 405.5ZM1621.77 391.719C1620.55 388.792 1618.97 386.06 1617.06 383.583L1615.48 384.802C1617.27 387.142 1618.77 389.722 1619.92 392.486L1621.77 391.719ZM1610.42 376.938C1607.94 375.035 1605.21 373.446 1602.28 372.232L1601.51 374.08C1604.28 375.226 1606.86 376.726 1609.2 378.524L1610.42 376.938ZM1593.2 369.804C1591.66 369.604 1590.09 369.5 1588.5 369.5L1588.5 371.5C1590.01 371.5 1591.49 371.598 1592.94 371.788L1593.2 369.804ZM1588.5 369.5L1583.57 369.5L1583.57 371.5L1588.5 371.5L1588.5 369.5ZM1573.7 369.5L1563.83 369.5L1563.83 371.5L1573.7 371.5L1573.7 369.5ZM1553.97 369.5L1544.1 369.5L1544.1 371.5L1553.97 371.5L1553.97 369.5ZM1534.24 369.5L1524.37 369.5L1524.37 371.5L1534.24 371.5L1534.24 369.5ZM1514.5 369.5L1504.64 369.5L1504.64 371.5L1514.5 371.5L1514.5 369.5ZM1494.77 369.5L1484.91 369.5L1484.91 371.5L1494.77 371.5L1494.77 369.5ZM1475.04 369.5L1465.17 369.5L1465.17 371.5L1475.04 371.5L1475.04 369.5ZM1455.31 369.5L1445.44 369.5L1445.44 371.5L1455.31 371.5L1455.31 369.5ZM1435.58 369.5L1425.71 369.5L1425.71 371.5L1435.58 371.5L1435.58 369.5ZM1415.84 369.5L1405.98 369.5L1405.98 371.5L1415.84 371.5L1415.84 369.5ZM1396.11 369.5L1386.25 369.5L1386.25 371.5L1396.11 371.5L1396.11 369.5ZM1376.38 369.5L1366.51 369.5L1366.51 371.5L1376.38 371.5L1376.38 369.5ZM1356.65 369.5L1346.78 369.5L1346.78 371.5L1356.65 371.5L1356.65 369.5ZM1336.92 369.5L1327.05 369.5L1327.05 371.5L1336.92 371.5L1336.92 369.5ZM1317.18 369.5L1307.32 369.5L1307.32 371.5L1317.18 371.5L1317.18 369.5ZM1297.45 369.5L1287.58 369.5L1287.58 371.5L1297.45 371.5L1297.45 369.5ZM1277.72 369.5L1267.85 369.5L1267.85 371.5L1277.72 371.5L1277.72 369.5ZM1257.99 369.5L1248.12 369.5L1248.12 371.5L1257.99 371.5L1257.99 369.5ZM1238.25 369.5L1228.39 369.5L1228.39 371.5L1238.25 371.5L1238.25 369.5ZM1218.52 369.5L1208.66 369.5L1208.66 371.5L1218.52 371.5L1218.52 369.5ZM1198.79 369.5L1188.92 369.5L1188.92 371.5L1198.79 371.5L1198.79 369.5ZM1179.06 369.5L1169.19 369.5L1169.19 371.5L1179.06 371.5L1179.06 369.5ZM1159.33 369.5L1149.46 369.5L1149.46 371.5L1159.33 371.5L1159.33 369.5ZM1139.59 369.5L1129.73 369.5L1129.73 371.5L1139.59 371.5L1139.59 369.5ZM1119.86 369.5L1109.99 369.5L1109.99 371.5L1119.86 371.5L1119.86 369.5ZM1100.13 369.5L1090.26 369.5L1090.26 371.5L1100.13 371.5L1100.13 369.5ZM1080.4 369.5L1070.53 369.5L1070.53 371.5L1080.4 371.5L1080.4 369.5ZM1060.66 369.5L1050.8 369.5L1050.8 371.5L1060.66 371.5L1060.66 369.5ZM1040.93 369.5L1036 369.5L1036 371.5L1040.93 371.5L1040.93 369.5ZM1588.5 370.5L1588.5 371.5L1588.5 371.5L1588.5 370.5ZM1623.5 405.5L1624.5 405.5L1624.5 405.5L1623.5 405.5ZM1623.5 603.5L1622.5 603.5L1622.5 603.5L1623.5 603.5ZM1588.5 638.5L1588.5 637.5H1588.5L1588.5 638.5ZM658.793 637.793C658.402 638.184 658.402 638.817 658.793 639.207L665.157 645.571C665.547 645.962 666.18 645.962 666.571 645.571C666.961 645.181 666.961 644.548 666.571 644.157L660.914 638.5L666.571 632.843C666.961 632.453 666.961 631.82 666.571 631.429C666.18 631.039 665.547 631.039 665.157 631.429L658.793 637.793ZM659.5 639.5L664.549 639.5L664.549 637.5L659.5 637.5L659.5 639.5ZM674.647 639.5L684.744 639.5L684.744 637.5L674.647 637.5L674.647 639.5ZM694.842 639.5L704.94 639.5L704.94 637.5L694.842 637.5L694.842 639.5ZM715.038 639.5L725.136 639.5L725.136 637.5L715.038 637.5L715.038 639.5ZM735.233 639.5L745.331 639.5L745.331 637.5L735.233 637.5L735.233 639.5ZM755.429 639.5L765.527 639.5L765.527 637.5L755.429 637.5L755.429 639.5ZM775.625 639.5L785.723 639.5L785.723 637.5L775.625 637.5L775.625 639.5ZM795.82 639.5L805.918 639.5L805.918 637.5L795.82 637.5L795.82 639.5ZM816.016 639.5L826.114 639.5L826.114 637.5L816.016 637.5L816.016 639.5ZM836.212 639.5L846.31 639.5L846.31 637.5L836.212 637.5L836.212 639.5ZM856.407 639.5L866.505 639.5L866.505 637.5L856.407 637.5L856.407 639.5ZM876.603 639.5L886.701 639.5L886.701 637.5L876.603 637.5L876.603 639.5ZM896.799 639.5L906.896 639.5L906.896 637.5L896.799 637.5L896.799 639.5ZM916.994 639.5L927.092 639.5L927.092 637.5L916.994 637.5L916.994 639.5ZM937.19 639.5L947.288 639.5L947.288 637.5L937.19 637.5L937.19 639.5ZM957.386 639.5L967.484 639.5L967.484 637.5L957.386 637.5L957.386 639.5ZM977.581 639.5L987.679 639.5L987.679 637.5L977.581 637.5L977.581 639.5ZM997.777 639.5L1007.87 639.5L1007.87 637.5L997.777 637.5L997.777 639.5ZM1017.97 639.5L1028.07 639.5L1028.07 637.5L1017.97 637.5L1017.97 639.5ZM1038.17 639.5L1048.27 639.5L1048.27 637.5L1038.17 637.5L1038.17 639.5ZM1058.36 639.5L1068.46 639.5L1068.46 637.5L1058.36 637.5L1058.36 639.5ZM1078.56 639.5L1088.66 639.5L1088.66 637.5L1078.56 637.5L1078.56 639.5ZM1098.76 639.5L1108.85 639.5L1108.85 637.5L1098.76 637.5L1098.76 639.5ZM1118.95 639.5L1129.05 639.5L1129.05 637.5L1118.95 637.5L1118.95 639.5ZM1139.15 639.5L1149.24 639.5L1149.24 637.5L1139.15 637.5L1139.15 639.5ZM1159.34 639.5L1169.44 639.5L1169.44 637.5L1159.34 637.5L1159.34 639.5ZM1179.54 639.5L1189.64 639.5L1189.64 637.5L1179.54 637.5L1179.54 639.5ZM1199.73 639.5L1209.83 639.5L1209.83 637.5L1199.73 637.5L1199.73 639.5ZM1219.93 639.5L1230.03 639.5L1230.03 637.5L1219.93 637.5L1219.93 639.5ZM1240.13 639.5L1250.22 639.5L1250.22 637.5L1240.13 637.5L1240.13 639.5ZM1260.32 639.5L1270.42 639.5L1270.42 637.5L1260.32 637.5L1260.32 639.5ZM1280.52 639.5L1290.61 639.5L1290.61 637.5L1280.52 637.5L1280.52 639.5ZM1300.71 639.5L1310.81 639.5L1310.81 637.5L1300.71 637.5L1300.71 639.5ZM1320.91 639.5L1331.01 639.5L1331.01 637.5L1320.91 637.5L1320.91 639.5ZM1341.1 639.5L1351.2 639.5L1351.2 637.5L1341.1 637.5L1341.1 639.5ZM1361.3 639.5L1371.4 639.5L1371.4 637.5L1361.3 637.5L1361.3 639.5ZM1381.49 639.5L1391.59 639.5L1391.59 637.5L1381.49 637.5L1381.49 639.5ZM1401.69 639.5L1411.79 639.5L1411.79 637.5L1401.69 637.5L1401.69 639.5ZM1421.89 639.5L1431.98 639.5L1431.98 637.5L1421.89 637.5L1421.89 639.5ZM1442.08 639.5L1452.18 639.5L1452.18 637.5L1442.08 637.5L1442.08 639.5ZM1462.28 639.5L1472.38 639.5L1472.38 637.5L1462.28 637.5L1462.28 639.5ZM1482.47 639.5L1492.57 639.5L1492.57 637.5L1482.47 637.5L1482.47 639.5ZM1502.67 639.5L1512.77 639.5L1512.77 637.5L1502.67 637.5L1502.67 639.5ZM1522.86 639.5L1532.96 639.5L1532.96 637.5L1522.86 637.5L1522.86 639.5ZM1543.06 639.5L1553.16 639.5L1553.16 637.5L1543.06 637.5L1543.06 639.5ZM1563.26 639.5L1573.35 639.5L1573.35 637.5L1563.26 637.5L1563.26 639.5ZM1583.45 639.5L1588.5 639.5L1588.5 637.5L1583.45 637.5L1583.45 639.5ZM1588.5 639.5C1590.09 639.5 1591.66 639.397 1593.2 639.196L1592.94 637.213C1591.49 637.402 1590.01 637.5 1588.5 637.5L1588.5 639.5ZM1602.28 636.768C1605.21 635.554 1607.94 633.966 1610.42 632.062L1609.2 630.476C1606.86 632.275 1604.28 633.775 1601.51 634.921L1602.28 636.768ZM1617.06 625.417C1618.97 622.94 1620.55 620.208 1621.77 617.281L1619.92 616.515C1618.77 619.278 1617.27 621.859 1615.48 624.198L1617.06 625.417ZM1624.2 608.201C1624.4 606.662 1624.5 605.093 1624.5 603.5L1622.5 603.5C1622.5 605.006 1622.4 606.489 1622.21 607.942L1624.2 608.201ZM1624.5 603.5L1624.5 598.55L1622.5 598.55L1622.5 603.5L1624.5 603.5ZM1624.5 588.65L1624.5 578.75L1622.5 578.75L1622.5 588.65L1624.5 588.65ZM1624.5 568.85L1624.5 558.95L1622.5 558.95L1622.5 568.85L1624.5 568.85ZM1624.5 549.05L1624.5 539.15L1622.5 539.15L1622.5 549.05L1624.5 549.05ZM1624.5 529.25L1624.5 519.35L1622.5 519.35L1622.5 529.25L1624.5 529.25ZM1624.5 509.45L1624.5 499.55L1622.5 499.55L1622.5 509.45L1624.5 509.45ZM1624.5 489.65L1624.5 479.75L1622.5 479.75L1622.5 489.65L1624.5 489.65ZM1624.5 469.85L1624.5 459.95L1622.5 459.95L1622.5 469.85L1624.5 469.85ZM1624.5 450.05L1624.5 440.15L1622.5 440.15L1622.5 450.05L1624.5 450.05ZM1624.5 430.25L1624.5 420.35L1622.5 420.35L1622.5 430.25L1624.5 430.25ZM1624.5 410.45L1624.5 405.5L1622.5 405.5L1622.5 410.45L1624.5 410.45ZM1624.5 405.5C1624.5 403.907 1624.4 402.338 1624.2 400.799L1622.21 401.058C1622.4 402.511 1622.5 403.994 1622.5 405.5L1624.5 405.5ZM1621.77 391.719C1620.55 388.792 1618.97 386.06 1617.06 383.583L1615.48 384.802C1617.27 387.142 1618.77 389.722 1619.92 392.486L1621.77 391.719ZM1610.42 376.938C1607.94 375.035 1605.21 373.446 1602.28 372.232L1601.51 374.08C1604.28 375.226 1606.86 376.726 1609.2 378.524L1610.42 376.938ZM1593.2 369.804C1591.66 369.604 1590.09 369.5 1588.5 369.5L1588.5 371.5C1590.01 371.5 1591.49 371.598 1592.94 371.788L1593.2 369.804ZM1588.5 369.5L1583.57 369.5L1583.57 371.5L1588.5 371.5L1588.5 369.5ZM1573.7 369.5L1563.83 369.5L1563.83 371.5L1573.7 371.5L1573.7 369.5ZM1553.97 369.5L1544.1 369.5L1544.1 371.5L1553.97 371.5L1553.97 369.5ZM1534.24 369.5L1524.37 369.5L1524.37 371.5L1534.24 371.5L1534.24 369.5ZM1514.5 369.5L1504.64 369.5L1504.64 371.5L1514.5 371.5L1514.5 369.5ZM1494.77 369.5L1484.91 369.5L1484.91 371.5L1494.77 371.5L1494.77 369.5ZM1475.04 369.5L1465.17 369.5L1465.17 371.5L1475.04 371.5L1475.04 369.5ZM1455.31 369.5L1445.44 369.5L1445.44 371.5L1455.31 371.5L1455.31 369.5ZM1435.58 369.5L1425.71 369.5L1425.71 371.5L1435.58 371.5L1435.58 369.5ZM1415.84 369.5L1405.98 369.5L1405.98 371.5L1415.84 371.5L1415.84 369.5ZM1396.11 369.5L1386.25 369.5L1386.25 371.5L1396.11 371.5L1396.11 369.5ZM1376.38 369.5L1366.51 369.5L1366.51 371.5L1376.38 371.5L1376.38 369.5ZM1356.65 369.5L1346.78 369.5L1346.78 371.5L1356.65 371.5L1356.65 369.5ZM1336.92 369.5L1327.05 369.5L1327.05 371.5L1336.92 371.5L1336.92 369.5ZM1317.18 369.5L1307.32 369.5L1307.32 371.5L1317.18 371.5L1317.18 369.5ZM1297.45 369.5L1287.58 369.5L1287.58 371.5L1297.45 371.5L1297.45 369.5ZM1277.72 369.5L1267.85 369.5L1267.85 371.5L1277.72 371.5L1277.72 369.5ZM1257.99 369.5L1248.12 369.5L1248.12 371.5L1257.99 371.5L1257.99 369.5ZM1238.25 369.5L1228.39 369.5L1228.39 371.5L1238.25 371.5L1238.25 369.5ZM1218.52 369.5L1208.66 369.5L1208.66 371.5L1218.52 371.5L1218.52 369.5ZM1198.79 369.5L1188.92 369.5L1188.92 371.5L1198.79 371.5L1198.79 369.5ZM1179.06 369.5L1169.19 369.5L1169.19 371.5L1179.06 371.5L1179.06 369.5ZM1159.33 369.5L1149.46 369.5L1149.46 371.5L1159.33 371.5L1159.33 369.5ZM1139.59 369.5L1129.73 369.5L1129.73 371.5L1139.59 371.5L1139.59 369.5ZM1119.86 369.5L1109.99 369.5L1109.99 371.5L1119.86 371.5L1119.86 369.5ZM1100.13 369.5L1090.26 369.5L1090.26 371.5L1100.13 371.5L1100.13 369.5ZM1080.4 369.5L1070.53 369.5L1070.53 371.5L1080.4 371.5L1080.4 369.5ZM1060.66 369.5L1050.8 369.5L1050.8 371.5L1060.66 371.5L1060.66 369.5ZM1040.93 369.5L1036 369.5L1036 371.5L1040.93 371.5L1040.93 369.5Z" fill="#23B6DF"/>
</svg>
