<svg width="85" height="85" viewBox="0 0 231 231" fill="none" xmlns="http://www.w3.org/2000/svg">
                  <path d="M115.25 79H80.875V62.5H140V77L117.875 98.125C129.875 100.125 141.375 106.375 141.375 122.75C141.375 139.375 129.375 151.5 109.875 151.5C94.125 151.5 83.25 145.25 75.75 136.375L89 123.75C95 130.5 101.25 134.25 110.125 134.25C117.375 134.25 122.5 130.125 122.5 123.5C122.5 116.25 116.375 112.25 105.375 112.25H97.375L94.375 100L115.25 79ZM176.637 150H156.387V130H176.637V150Z" fill="#003149" />
                  <circle cx="115.5" cy="115.5" r="113" stroke="black" stroke-width="5" stroke-dasharray="10 10" />
                </svg>